<svg
        viewBox="-22 0 300 300"
        xmlns="http://www.w3.org/2000/svg"
      >
        <path
          d="M10.584 156.41v-.213l.001-32.539 7.136.001v35.255c.332 2.84.088 5.72-.717 8.465-.805 2.745-2.155 5.3-3.969 7.512-3.371 2.908-7.691 4.48-12.143 4.42-2.937.04-5.694-1.018-7.828-2.939C-4.853 173.89-4.108 170.854-4.108 161.535l-.001-.001zm53.22-4.201c0 3.994 0 7.562.32 10.651l-6.337.001-.426-6.338c-1.326 2.242-3.221 4.093-5.494 5.365-2.273 1.272-4.842 1.92-7.447 1.877-6.177 0-13.526-3.355-13.526-17.042v-22.74h7.136v21.302c0 7.403 2.29 12.355 8.734 12.355 1.326.014 2.641-.236 3.869-.737 1.228-.501 2.343-1.242 3.28-2.179.938-.938 1.678-2.053 2.179-3.281.501-1.228.751-2.543.737-3.869V123.717h7.136v28.279l-.16.213zm13.527-15.555c0-4.953 0-9 -.32-12.675h6.391l.32 6.657c1.424-2.405 3.473-4.379 5.931-5.711 2.457-1.332 5.23-1.972 8.022-1.852 9.479 0 16.616 7.935 16.616 19.758 0 13.953-8.574 20.876-17.84 20.876-2.372.106-4.731-.402-6.849-1.475-2.118-1.073-3.923-2.674-5.24-4.649v21.302h-7.03v-42.072l-.001-.159zm7.03 10.385c.019.966.126 1.929.319 2.876.604 2.365 1.98 4.46 3.909 5.955 1.929 1.495 4.301 2.304 6.742 2.299 7.509 0 11.929-6.124 11.929-15.018 0-7.775-4.154-14.432-11.663-14.432-2.972.243-5.752 1.562-7.821 3.709-2.069 2.147-3.283 4.975-3.416 7.954l.001 6.657zm42.644-23.095l8.574 22.953c.905 2.556 1.864 5.645 2.503 7.935.746-2.343 1.544-5.326 2.503-8.095l7.775-22.793h7.509l-10.651 27.693c-5.325 13.314-8.574 20.184-13.473 24.338-2.468 2.254-5.476 3.832-8.734 4.58-1.757-5.965.522-7.148 2.362-8.649 2.598-2.117 4.659-4.818 6.017-7.882.291-.531.489-1.107.586-1.704-.061-.643-.222-1.272-.479-1.864l-14.485-35.841h7.775l.107.106zm47.809-11.173v11.184h10.225v5.325h-10.225v20.983c0 4.793 1.385 7.562 5.325 7.562 1.4 0 2.796-.161 4.154-.502l.32 5.325c-2.036.705-4.184 1.03-6.337.958-1.426.089-2.855-.131-4.188-.646-1.333-.515-2.538-1.312-3.534-2.337-2.169-2.901-3.159-6.517-2.769-10.118v-21.302h-6.071v-5.325h6.177v-9.479l6.923-1.651zm23.371 31.877c-.145 1.806.105 3.622.731 5.322.626 1.7 1.614 3.244 2.895 4.525 1.281 1.281 2.825 2.269 4.526 2.895 1.7.626 3.516.875 5.322.731 3.653.082 7.282-.608 10.651-2.023l1.225 5.326c-4.134 1.703-8.579 2.519-13.048 2.396-2.605.178-5.218-.209-7.66-1.135-2.441-.926-4.654-2.37-6.485-4.231-1.831-1.862-3.238-4.098-4.124-6.554-.886-2.457-1.23-5.076-1.009-7.678 0-11.716 6.976-20.982 18.373-20.982 12.781 0 15.977 11.184 15.977 18.32 0 1.1-.001 2.203-.069 3.303l-27.533-.001.16-.213zm20.876-5.325c.206-1.424.103-2.875-.3-4.256-.403-1.381-1.097-2.66-2.036-3.75-1.938-2.25-4.1-3.66-6.405-3.668-2.926.212-5.668 1.509-7.687 3.637-2.02 2.128-3.172 4.933-3.231 7.866l19.658.171zm17.325-3.269c0-4.58 0-8.521-.32-12.142h6.391l.001 7.616h.319c.671-2.35 2.057-4.433 3.966-5.96 1.909-1.527 4.246-2.422 6.686-2.56 1.672-.22 2.352-.22 3.024-.132l0 6.657c-.814-.094-1.636-.094-2.45 0-2.417.094-4.718 1.064-6.472 2.73-1.755 1.666-2.842 3.914-3.06 6.323-.2 1.09-.306 2.194-.32 3.302l0 20.716h-7.03l0-26.627.266-.053z"
          fill="#4E4E4E"
        />
        <path
          d="M233.258 16.962c.219 3.578-.632 7.14-2.445 10.232-1.813 3.092-4.505 5.575-7.734 7.132-3.229 1.557-6.848 2.117-10.396 1.61-3.548-.507-6.865-2.059-9.528-4.458-2.663-2.399-4.552-5.537-5.426-9.013-.874-3.476-.693-7.133.519-10.506 1.212-3.373 3.401-6.309 6.288-8.434 2.887-2.125 6.341-3.342 9.922-3.497 2.348-.129 4.698.207 6.915.989 2.217.782 4.258 1.995 6.005 3.569 1.747 1.574 3.166 3.478 4.175 5.602 1.009 2.124 1.588 4.427 1.704 6.775z"
          fill="#767677"
        />
        <path
          d="M127.953 225.541c-47.929 0-90.054-17.202-111.836-42.604 8.451 22.853 23.7 42.568 43.695 56.492 19.995 13.924 43.776 21.388 68.141 21.388 24.365 0 48.146-7.464 68.141-21.388 19.995-13.924 35.244-33.639 43.696-56.492-21.728 25.403-63.694 42.604-111.837 42.604z"
          fill="#F37726"
        />
        <path
          d="M127.953 60.354c47.93 0 90.055 17.201 111.836 42.604-8.451-22.853-23.7-42.568-43.695-56.492-19.995-13.924-43.776-21.388-68.141-21.388-24.365 0-48.146 7.464-68.141 21.388-19.995 13.924-35.244 33.639-43.696 56.492 21.728-25.403 63.694-42.604 111.837-42.604z"
          fill="#F37726"
        />
        <path
          d="M61.972 274.975c.281 4.506-.786 8.994-3.065 12.892-2.279 3.898-5.666 7.029-9.731 8.995-4.065 1.966-8.623 2.677-13.093 2.043-4.47-.634-8.651-2.584-12.009-5.602-3.358-3.018-5.741-6.968-6.846-11.346-1.105-4.378-.882-8.986.641-13.237 1.523-4.251 4.277-7.952 7.911-10.632 3.634-2.68 7.983-4.208 12.494-4.399 2.955-.158 5.912 1.266 8.788 1.059 2.876.207 5.631 2.128 7.822 5.349 2.191 3.221 3.243 7.636 3.243 12.879 1.266 1.984 2.532 1.625 3.845 2.002z"
          fill="#9E9E9E"
        />
        <path
          d="M21.564 54.565c-2.583.071-5.129-.623-7.318-1.994-2.189-1.372-3.927-3.738-4.986-6.79-1.062-2.355-1.563-4.92-1.467-7.506.079-2.586.686-5.111 1.782-7.409 1.458-3.056 3.829-5.626 6.809-7.382 2.98-1.756 6.375-2.613 9.752-2.463 3.378.15 6.726 1.189 9.619 2.986 2.893 1.796 5.253 4.318 6.782 7.245 1.519 2.909 2.315 6.138 2.296 9.405-.019 3.267-.847 6.485-2.387 9.278-1.28 2.552-3.294 4.707-5.834 6.241-2.54 1.534-5.388 2.327-8.329 2.318l-6.721-3.929z"
          fill="#616262"
        />
      </svg>
